{"images":[{"uri":"texture_0.jpg","name":"texture_0.jpg"}],"accessors":[{"componentType":5125,"bufferView":0,"count":667092,"type":"SCALAR","byteOffset":0},{"componentType":5126,"max":[0.009982690215110779,0.0026376100722700357,0.004259639885276556],"bufferView":1,"count":129708,"type":"VEC3","min":[-0.010003099218010902,-0.002658120123669505,-0.004278779961168766],"byteOffset":0},{"componentType":5126,"bufferView":1,"count":129708,"type":"VEC3","byteOffset":12},{"componentType":5126,"bufferView":1,"count":129708,"type":"VEC2","byteOffset":24}],"textures":[{"source":0,"sampler":0}],"buffers":[{"byteLength":6819024,"uri":"buffer.bin"}],"bufferViews":[{"byteLength":2668368,"target":34963,"byteOffset":0,"buffer":0},{"byteLength":4150656,"byteStride":32,"target":34962,"byteOffset":2668368,"buffer":0}],"samplers":[{"magFilter":9729,"minFilter":9987}],"scene":0,"nodes":[{"children":[1],"name":"RootNode","translation":[0.0010204501450061798,0.26581203602942727,0.0009570117203047124]},{"scale":[100,100,100],"name":"Mesh1_Mesh1.008","mesh":0}],"materials":[{"pbrMetallicRoughness":{"roughnessFactor":0.52,"baseColorFactor":[1,1,1,1],"baseColorTexture":{"index":0},"metallicFactor":0.400000005960464},"extensions":{"KHR_materials_specular":{"specularFactor":0.3}},"name":"Material.001"}],"scenes":[{"nodes":[0],"name":"Root Scene"}],"asset":{"generator":"CG美术之家","source":"https://www.cgmszj.com/model/108183.html","version":"2.0"},"meshes":[{"primitives":[{"mode":4,"indices":0,"material":0,"attributes":{"POSITION":1,"TEXCOORD_0":3,"NORMAL":2}}],"name":"Mesh1_Mesh1.008"}]}