{"images":[{"uri":"metallicRoughness_4.jpg","name":"metallicRoughness_4.jpg"},{"uri":"metallicRoughness_2.jpg","name":"metallicRoughness_2.jpg"},{"uri":"baseColor_3.jpg","name":"baseColor_3.jpg"},{"uri":"metallicRoughness_3.jpg","name":"metallicRoughness_3.jpg"},{"uri":"baseColor_1.jpg","name":"baseColor_1.jpg"},{"uri":"metallicRoughness_1.jpg","name":"metallicRoughness_1.jpg"},{"uri":"baseColor_4.jpg","name":"baseColor_4.jpg"},{"uri":"baseColor_7.jpg","name":"baseColor_7.jpg"},{"uri":"baseColor_2.jpg","name":"baseColor_2.jpg"},{"uri":"metallicRoughness_5.jpg","name":"metallicRoughness_5.jpg"},{"uri":"metallicRoughness_6.jpg","name":"metallicRoughness_6.jpg"},{"uri":"metallicRoughness_9.jpg","name":"metallicRoughness_9.jpg"},{"uri":"baseColor_9.jpg","name":"baseColor_9.jpg"},{"uri":"baseColor_6.jpg","name":"baseColor_6.jpg"},{"uri":"baseColor_5.jpg","name":"baseColor_5.jpg"},{"uri":"metallicRoughness_8.jpg","name":"metallicRoughness_8.jpg"},{"uri":"baseColor_8.jpg","name":"baseColor_8.jpg"},{"uri":"baseColor_10.jpg","name":"baseColor_10.jpg"},{"uri":"metallicRoughness_7.jpg","name":"metallicRoughness_7.jpg"},{"uri":"metallicRoughness_13.jpg","name":"metallicRoughness_13.jpg"},{"uri":"baseColor_12.jpg","name":"baseColor_12.jpg"},{"uri":"baseColor_11.jpg","name":"baseColor_11.jpg"},{"uri":"metallicRoughness_10.jpg","name":"metallicRoughness_10.jpg"},{"uri":"metallicRoughness_15.jpg","name":"metallicRoughness_15.jpg"},{"uri":"metallicRoughness_11.jpg","name":"metallicRoughness_11.jpg"},{"uri":"metallicRoughness_12.jpg","name":"metallicRoughness_12.jpg"},{"uri":"metallicRoughness_16.jpg","name":"metallicRoughness_16.jpg"},{"uri":"metallicRoughness_21.jpg","name":"metallicRoughness_21.jpg"},{"uri":"baseColor_15.jpg","name":"baseColor_15.jpg"},{"uri":"metallicRoughness_17.jpg","name":"metallicRoughness_17.jpg"},{"uri":"baseColor_13.jpg","name":"baseColor_13.jpg"},{"uri":"baseColor_24.jpg","name":"baseColor_24.jpg"},{"uri":"baseColor_22.jpg","name":"baseColor_22.jpg"},{"uri":"metallicRoughness_22.jpg","name":"metallicRoughness_22.jpg"},{"uri":"baseColor_21.jpg","name":"baseColor_21.jpg"},{"uri":"baseColor_17.jpg","name":"baseColor_17.jpg"},{"uri":"baseColor_14.jpg","name":"baseColor_14.jpg"},{"uri":"baseColor_19.jpg","name":"baseColor_19.jpg"},{"uri":"metallicRoughness_19.jpg","name":"metallicRoughness_19.jpg"},{"uri":"metallicRoughness_18.jpg","name":"metallicRoughness_18.jpg"},{"uri":"baseColor_18.jpg","name":"baseColor_18.jpg"},{"uri":"metallicRoughness_14.jpg","name":"metallicRoughness_14.jpg"},{"uri":"metallicRoughness_23.jpg","name":"metallicRoughness_23.jpg"},{"uri":"baseColor_20.jpg","name":"baseColor_20.jpg"},{"uri":"metallicRoughness_24.jpg","name":"metallicRoughness_24.jpg"},{"uri":"baseColor_23.jpg","name":"baseColor_23.jpg"},{"uri":"metallicRoughness_20.jpg","name":"metallicRoughness_20.jpg"},{"uri":"baseColor_16.jpg","name":"baseColor_16.jpg"},{"uri":"normal_9.jpg","name":"normal_9.jpg"},{"uri":"normal_3.jpg","name":"normal_3.jpg"},{"uri":"normal_5.jpg","name":"normal_5.jpg"},{"uri":"normal_1.jpg","name":"normal_1.jpg"},{"uri":"normal_4.jpg","name":"normal_4.jpg"},{"uri":"normal_2.jpg","name":"normal_2.jpg"},{"uri":"normal_6.jpg","name":"normal_6.jpg"},{"uri":"normal_8.jpg","name":"normal_8.jpg"},{"uri":"normal_10.jpg","name":"normal_10.jpg"},{"uri":"normal_7.jpg","name":"normal_7.jpg"},{"uri":"normal_11.jpg","name":"normal_11.jpg"},{"uri":"normal_12.jpg","name":"normal_12.jpg"},{"uri":"normal_22.jpg","name":"normal_22.jpg"},{"uri":"normal_15.jpg","name":"normal_15.jpg"},{"uri":"normal_13.jpg","name":"normal_13.jpg"},{"uri":"normal_21.jpg","name":"normal_21.jpg"},{"uri":"normal_17.jpg","name":"normal_17.jpg"},{"uri":"normal_14.jpg","name":"normal_14.jpg"},{"uri":"normal_19.jpg","name":"normal_19.jpg"},{"uri":"normal_24.jpg","name":"normal_24.jpg"},{"uri":"normal_18.jpg","name":"normal_18.jpg"},{"uri":"specular_9.jpg","name":"specular_9.jpg"},{"uri":"normal_23.jpg","name":"normal_23.jpg"},{"uri":"specular_3.jpg","name":"specular_3.jpg"},{"uri":"specular_5.jpg","name":"specular_5.jpg"},{"uri":"normal_16.jpg","name":"normal_16.jpg"},{"uri":"normal_20.jpg","name":"normal_20.jpg"},{"uri":"specular_1.jpg","name":"specular_1.jpg"},{"uri":"specular_4.jpg","name":"specular_4.jpg"},{"uri":"specular_2.jpg","name":"specular_2.jpg"},{"uri":"specular_6.jpg","name":"specular_6.jpg"},{"uri":"specular_8.jpg","name":"specular_8.jpg"},{"uri":"specular_10.jpg","name":"specular_10.jpg"},{"uri":"specular_11.jpg","name":"specular_11.jpg"},{"uri":"specular_12.jpg","name":"specular_12.jpg"},{"uri":"specular_22.jpg","name":"specular_22.jpg"},{"uri":"specular_15.jpg","name":"specular_15.jpg"},{"uri":"specular_13.jpg","name":"specular_13.jpg"},{"uri":"specular_7.jpg","name":"specular_7.jpg"},{"uri":"specular_17.jpg","name":"specular_17.jpg"},{"uri":"specular_14.jpg","name":"specular_14.jpg"},{"uri":"specular_21.jpg","name":"specular_21.jpg"},{"uri":"specular_19.jpg","name":"specular_19.jpg"},{"uri":"specular_24.jpg","name":"specular_24.jpg"},{"uri":"specular_18.jpg","name":"specular_18.jpg"},{"uri":"specular_16.jpg","name":"specular_16.jpg"},{"uri":"specular_20.jpg","name":"specular_20.jpg"},{"uri":"specular_23.jpg","name":"specular_23.jpg"}],"accessors":[{"componentType":5126,"max":[16.596229553222656,13.92159652709961,1.181788444519043],"bufferView":0,"count":2867,"type":"VEC3","min":[-1.3630752563476562,-0.0005249977111816406,-23.806289672851562],"byteOffset":0},{"componentType":5126,"bufferView":0,"count":2867,"type":"VEC3","byteOffset":12},{"componentType":5126,"bufferView":0,"count":2867,"type":"VEC2","byteOffset":24},{"componentType":5123,"bufferView":1,"count":5988,"type":"SCALAR","byteOffset":0},{"componentType":5123,"bufferView":1,"count":62808,"type":"SCALAR","byteOffset":11976},{"componentType":5123,"bufferView":1,"count":5256,"type":"SCALAR","byteOffset":137592},{"componentType":5123,"bufferView":1,"count":39165,"type":"SCALAR","byteOffset":148104},{"componentType":5123,"bufferView":1,"count":10128,"type":"SCALAR","byteOffset":226436},{"componentType":5123,"bufferView":1,"count":1905,"type":"SCALAR","byteOffset":246692},{"componentType":5123,"bufferView":1,"count":2292,"type":"SCALAR","byteOffset":250504},{"componentType":5123,"bufferView":1,"count":132,"type":"SCALAR","byteOffset":255088},{"componentType":5123,"bufferView":1,"count":35604,"type":"SCALAR","byteOffset":255352},{"componentType":5123,"bufferView":1,"count":12894,"type":"SCALAR","byteOffset":326560},{"componentType":5123,"bufferView":1,"count":240,"type":"SCALAR","byteOffset":352348},{"componentType":5123,"bufferView":1,"count":2898,"type":"SCALAR","byteOffset":352828},{"componentType":5123,"bufferView":1,"count":20184,"type":"SCALAR","byteOffset":358624},{"componentType":5123,"bufferView":1,"count":3930,"type":"SCALAR","byteOffset":398992},{"componentType":5123,"bufferView":1,"count":13296,"type":"SCALAR","byteOffset":406852},{"componentType":5123,"bufferView":1,"count":3054,"type":"SCALAR","byteOffset":433444},{"componentType":5123,"bufferView":1,"count":12756,"type":"SCALAR","byteOffset":439552},{"componentType":5123,"bufferView":1,"count":63486,"type":"SCALAR","byteOffset":465064},{"componentType":5125,"bufferView":1,"count":313047,"type":"SCALAR","byteOffset":592036},{"componentType":5123,"bufferView":1,"count":6510,"type":"SCALAR","byteOffset":1844224},{"componentType":5123,"bufferView":1,"count":3168,"type":"SCALAR","byteOffset":1857244},{"componentType":5123,"bufferView":1,"count":60078,"type":"SCALAR","byteOffset":1863580},{"componentType":5123,"bufferView":1,"count":2502,"type":"SCALAR","byteOffset":1983736},{"componentType":5123,"bufferView":1,"count":2724,"type":"SCALAR","byteOffset":1988740},{"componentType":5123,"bufferView":1,"count":12,"type":"SCALAR","byteOffset":1994188},{"componentType":5123,"bufferView":1,"count":48,"type":"SCALAR","byteOffset":1994212},{"componentType":5123,"bufferView":1,"count":6,"type":"SCALAR","byteOffset":1994308},{"componentType":5126,"max":[19.106409072875977,11.7531099319458,0.03900718688964844],"bufferView":2,"count":29438,"type":"VEC3","min":[-5.300439834594727,-0.018775463104248047,-27.759090423583984],"byteOffset":0},{"componentType":5126,"bufferView":2,"count":29438,"type":"VEC3","byteOffset":12},{"componentType":5126,"bufferView":2,"count":29438,"type":"VEC2","byteOffset":24},{"componentType":5126,"max":[19.65383529663086,23.982036590576172,-0.33220958709716797],"bufferView":3,"count":2687,"type":"VEC3","min":[-2.20428466796875,4.6297197341918945,-27.20679473876953],"byteOffset":0},{"componentType":5126,"bufferView":3,"count":2687,"type":"VEC3","byteOffset":12},{"componentType":5126,"bufferView":3,"count":2687,"type":"VEC2","byteOffset":24},{"componentType":5126,"max":[20.50008773803711,14.724637031555176,0.8568496704101562],"bufferView":4,"count":19246,"type":"VEC3","min":[-4.998674392700195,-0.06372833251953125,-27.452096939086914],"byteOffset":0},{"componentType":5126,"bufferView":4,"count":19246,"type":"VEC3","byteOffset":12},{"componentType":5126,"bufferView":4,"count":19246,"type":"VEC2","byteOffset":24},{"componentType":5126,"max":[15.745494842529297,13.714957237243652,-13.299400329589844],"bufferView":5,"count":3518,"type":"VEC3","min":[8.7967529296875,0.3491525650024414,-25.784086227416992],"byteOffset":0},{"componentType":5126,"bufferView":5,"count":3518,"type":"VEC3","byteOffset":12},{"componentType":5126,"bufferView":5,"count":3518,"type":"VEC2","byteOffset":24},{"componentType":5126,"max":[20.50008773803711,14.724637031555176,0.8568496704101562],"bufferView":6,"count":893,"type":"VEC3","min":[-3.975513458251953,2.837465286254883,-25.905712127685547],"byteOffset":0},{"componentType":5126,"bufferView":6,"count":893,"type":"VEC3","byteOffset":12},{"componentType":5126,"bufferView":6,"count":893,"type":"VEC2","byteOffset":24},{"componentType":5126,"max":[15.626462936401367,8.334332466125488,0.03410053253173828],"bufferView":7,"count":1140,"type":"VEC3","min":[-0.4671478271484375,-0.000045299530029296875,-20.644081115722656],"byteOffset":0},{"componentType":5126,"bufferView":7,"count":1140,"type":"VEC3","byteOffset":12},{"componentType":5126,"bufferView":7,"count":1140,"type":"VEC2","byteOffset":24},{"componentType":5126,"max":[20.343053817749023,14.689624786376953,-1.660365104675293],"bufferView":8,"count":64,"type":"VEC3","min":[-2.083057403564453,6.18344783782959,-27.006986618041992],"byteOffset":0},{"componentType":5126,"bufferView":8,"count":64,"type":"VEC3","byteOffset":12},{"componentType":5126,"bufferView":8,"count":64,"type":"VEC2","byteOffset":24},{"componentType":5126,"max":[13.071587562561035,9.190007209777832,0.5170707702636719],"bufferView":9,"count":13284,"type":"VEC3","min":[0.4808826446533203,-0.013348579406738281,-20.624149322509766],"byteOffset":0},{"componentType":5126,"bufferView":9,"count":13284,"type":"VEC3","byteOffset":12},{"componentType":5126,"bufferView":9,"count":13284,"type":"VEC2","byteOffset":24},{"componentType":5126,"max":[15.001855850219727,9.537160873413086,-0.03065967559814453],"bufferView":10,"count":3605,"type":"VEC3","min":[-5.336084365844727,-0.010403633117675781,-27.818115234375],"byteOffset":0},{"componentType":5126,"bufferView":10,"count":3605,"type":"VEC3","byteOffset":12},{"componentType":5126,"bufferView":10,"count":3605,"type":"VEC2","byteOffset":24},{"componentType":5126,"max":[6.629911422729492,9.184782028198242,-20.331478118896484],"bufferView":11,"count":118,"type":"VEC3","min":[3.002286911010742,8.397467613220215,-25.47510528564453],"byteOffset":0},{"componentType":5126,"bufferView":11,"count":118,"type":"VEC3","byteOffset":12},{"componentType":5126,"bufferView":11,"count":118,"type":"VEC2","byteOffset":24},{"componentType":5126,"max":[8.907794952392578,0.841429591178894,-18.22440528869629],"bufferView":12,"count":1360,"type":"VEC3","min":[7.144998550415039,-0.03018110990524292,-19.019508361816406],"byteOffset":0},{"componentType":5126,"bufferView":12,"count":1360,"type":"VEC3","byteOffset":12},{"componentType":5126,"bufferView":12,"count":1360,"type":"VEC2","byteOffset":24},{"componentType":5126,"max":[12.93655014038086,9.1582612991333,-7.1124958992004395],"bufferView":13,"count":10614,"type":"VEC3","min":[0.48419189453125,-0.013203620910644531,-20.62084197998047],"byteOffset":0},{"componentType":5126,"bufferView":13,"count":10614,"type":"VEC3","byteOffset":12},{"componentType":5126,"bufferView":13,"count":10614,"type":"VEC2","byteOffset":24},{"componentType":5126,"max":[18.973247528076172,8.128349304199219,-4.050274848937988],"bufferView":14,"count":1157,"type":"VEC3","min":[-4.315298080444336,0.000000476837158203125,-20.747005462646484],"byteOffset":0},{"componentType":5126,"bufferView":14,"count":1157,"type":"VEC3","byteOffset":12},{"componentType":5126,"bufferView":14,"count":1157,"type":"VEC2","byteOffset":24},{"componentType":5126,"max":[19.219005584716797,11.856409072875977,0.04049205780029297],"bufferView":15,"count":5284,"type":"VEC3","min":[-4.526268005371094,4.540364742279053,-26.197216033935547],"byteOffset":0},{"componentType":5126,"bufferView":15,"count":5284,"type":"VEC3","byteOffset":12},{"componentType":5126,"bufferView":15,"count":5284,"type":"VEC2","byteOffset":24},{"componentType":5126,"max":[20.368741989135742,23.758846282958984,0.8174772262573242],"bufferView":16,"count":868,"type":"VEC3","min":[-5.374847412109375,2.718729019165039,-27.817115783691406],"byteOffset":0},{"componentType":5126,"bufferView":16,"count":868,"type":"VEC3","byteOffset":12},{"componentType":5126,"bufferView":16,"count":868,"type":"VEC2","byteOffset":24},{"componentType":5126,"max":[20.352176666259766,23.763593673706055,0.8601255416870117],"bufferView":17,"count":5829,"type":"VEC3","min":[-5.362827301025391,2.75527286529541,-27.84573745727539],"byteOffset":0},{"componentType":5126,"bufferView":17,"count":5829,"type":"VEC3","byteOffset":12},{"componentType":5126,"bufferView":17,"count":5829,"type":"VEC2","byteOffset":24},{"componentType":5126,"max":[19.410810470581055,26.562562942504883,0.4602527618408203],"bufferView":18,"count":22072,"type":"VEC3","min":[-4.465545654296875,4.608490943908691,-27.07109832763672],"byteOffset":0},{"componentType":5126,"bufferView":18,"count":22072,"type":"VEC3","byteOffset":12},{"componentType":5126,"bufferView":18,"count":22072,"type":"VEC2","byteOffset":24},{"componentType":5126,"max":[17.410564422607422,20.428550720214844,-1.6872358322143555],"bufferView":19,"count":97867,"type":"VEC3","min":[-3.504779815673828,-0.03670978546142578,-26.350311279296875],"byteOffset":0},{"componentType":5126,"bufferView":19,"count":97867,"type":"VEC3","byteOffset":12},{"componentType":5126,"bufferView":19,"count":97867,"type":"VEC2","byteOffset":24},{"componentType":5126,"max":[18.737140655517578,20.84356117248535,0.21131038665771484],"bufferView":20,"count":1799,"type":"VEC3","min":[-4.906764984130859,-0.06372833251953125,-27.40027618408203],"byteOffset":0},{"componentType":5126,"bufferView":20,"count":1799,"type":"VEC3","byteOffset":12},{"componentType":5126,"bufferView":20,"count":1799,"type":"VEC2","byteOffset":24},{"componentType":5126,"max":[16.654109954833984,13.954887390136719,0.6714496612548828],"bufferView":21,"count":1188,"type":"VEC3","min":[-0.2872457504272461,-0.00011920928955078125,-20.630207061767578],"byteOffset":0},{"componentType":5126,"bufferView":21,"count":1188,"type":"VEC3","byteOffset":12},{"componentType":5126,"bufferView":21,"count":1188,"type":"VEC2","byteOffset":24},{"componentType":5126,"max":[20.069793701171875,14.64344596862793,0.2493276596069336],"bufferView":22,"count":22199,"type":"VEC3","min":[-4.950830459594727,-0.24951505661010742,-27.528736114501953],"byteOffset":0},{"componentType":5126,"bufferView":22,"count":22199,"type":"VEC3","byteOffset":12},{"componentType":5126,"bufferView":22,"count":22199,"type":"VEC2","byteOffset":24},{"componentType":5126,"max":[20.036312103271484,14.823087692260742,-5.715123176574707],"bufferView":23,"count":637,"type":"VEC3","min":[-0.10101318359375,-0.000001430511474609375,-25.7088623046875],"byteOffset":0},{"componentType":5126,"bufferView":23,"count":637,"type":"VEC3","byteOffset":12},{"componentType":5126,"bufferView":23,"count":637,"type":"VEC2","byteOffset":24},{"componentType":5126,"max":[19.002613067626953,11.672455787658691,-0.04097557067871094],"bufferView":24,"count":817,"type":"VEC3","min":[-4.249155044555664,3.1665072441101074,-26.22834014892578],"byteOffset":0},{"componentType":5126,"bufferView":24,"count":817,"type":"VEC3","byteOffset":12},{"componentType":5126,"bufferView":24,"count":817,"type":"VEC2","byteOffset":24},{"componentType":5126,"max":[15.738014221191406,13.576007843017578,-13.438350677490234],"bufferView":25,"count":8,"type":"VEC3","min":[9.265902519226074,7.694314956665039,-25.575164794921875],"byteOffset":0},{"componentType":5126,"bufferView":25,"count":8,"type":"VEC3","byteOffset":12},{"componentType":5126,"bufferView":25,"count":8,"type":"VEC2","byteOffset":24},{"componentType":5126,"max":[20.017139434814453,13.049310684204102,-0.23078632354736328],"bufferView":26,"count":32,"type":"VEC3","min":[-2.2251720428466797,1.39013671875,-26.43875503540039],"byteOffset":0},{"componentType":5126,"bufferView":26,"count":32,"type":"VEC3","byteOffset":12},{"componentType":5126,"bufferView":26,"count":32,"type":"VEC2","byteOffset":24},{"componentType":5126,"max":[-55.90801239013672,5.231863498687744,-86.2580337524414],"bufferView":27,"count":4,"type":"VEC3","min":[-57.912498474121094,0.45292139053344727,-86.2580337524414],"byteOffset":0},{"componentType":5126,"bufferView":27,"count":4,"type":"VEC3","byteOffset":12},{"componentType":5126,"bufferView":27,"count":4,"type":"VEC2","byteOffset":24}],"extensionsUsed":["KHR_materials_specular"],"textures":[{"source":0,"sampler":0},{"source":1,"sampler":0},{"source":2,"sampler":0},{"source":3,"sampler":0},{"source":4,"sampler":0},{"source":5,"sampler":0},{"source":6,"sampler":0},{"source":7,"sampler":0},{"source":8,"sampler":0},{"source":9,"sampler":0},{"source":10,"sampler":0},{"source":11,"sampler":0},{"source":12,"sampler":0},{"source":13,"sampler":0},{"source":14,"sampler":0},{"source":15,"sampler":0},{"source":16,"sampler":0},{"source":17,"sampler":0},{"source":18,"sampler":0},{"source":19,"sampler":0},{"source":20,"sampler":0},{"source":21,"sampler":0},{"source":22,"sampler":0},{"source":23,"sampler":0},{"source":24,"sampler":0},{"source":25,"sampler":0},{"source":26,"sampler":0},{"source":27,"sampler":0},{"source":28,"sampler":0},{"source":29,"sampler":0},{"source":30,"sampler":0},{"source":31,"sampler":0},{"source":32,"sampler":0},{"source":33,"sampler":0},{"source":34,"sampler":0},{"source":35,"sampler":0},{"source":36,"sampler":0},{"source":37,"sampler":0},{"source":38,"sampler":0},{"source":39,"sampler":0},{"source":40,"sampler":0},{"source":41,"sampler":0},{"source":42,"sampler":0},{"source":43,"sampler":0},{"source":44,"sampler":0},{"source":45,"sampler":0},{"source":46,"sampler":0},{"source":47,"sampler":0},{"source":48,"sampler":0},{"source":49,"sampler":0},{"source":50,"sampler":0},{"source":51,"sampler":0},{"source":52,"sampler":0},{"source":53,"sampler":0},{"source":54,"sampler":0},{"source":55,"sampler":0},{"source":56,"sampler":0},{"source":57,"sampler":0},{"source":58,"sampler":0},{"source":59,"sampler":0},{"source":60,"sampler":0},{"source":61,"sampler":0},{"source":62,"sampler":0},{"source":63,"sampler":0},{"source":64,"sampler":0},{"source":65,"sampler":0},{"source":66,"sampler":0},{"source":67,"sampler":0},{"source":68,"sampler":0},{"source":69,"sampler":0},{"source":70,"sampler":0},{"source":71,"sampler":0},{"source":72,"sampler":0},{"source":73,"sampler":0},{"source":74,"sampler":0},{"source":75,"sampler":0},{"source":76,"sampler":0},{"source":77,"sampler":0},{"source":78,"sampler":0},{"source":79,"sampler":0},{"source":80,"sampler":0},{"source":81,"sampler":0},{"source":82,"sampler":0},{"source":83,"sampler":0},{"source":84,"sampler":0},{"source":85,"sampler":0},{"source":86,"sampler":0},{"source":87,"sampler":0},{"source":88,"sampler":0},{"source":89,"sampler":0},{"source":90,"sampler":0},{"source":91,"sampler":0},{"source":92,"sampler":0},{"source":93,"sampler":0},{"source":94,"sampler":0},{"source":95,"sampler":0}],"buffers":[{"byteLength":9949360,"uri":"59ffc2f7f4674fa59cc55b3b86ad6281.bin"}],"bufferViews":[{"byteLength":91744,"byteStride":32,"target":34962,"byteOffset":0,"buffer":0},{"byteLength":1994320,"target":34963,"byteOffset":91744,"buffer":0},{"byteLength":942016,"byteStride":32,"target":34962,"byteOffset":2086064,"buffer":0},{"byteLength":85984,"byteStride":32,"target":34962,"byteOffset":3028080,"buffer":0},{"byteLength":615872,"byteStride":32,"target":34962,"byteOffset":3114064,"buffer":0},{"byteLength":112576,"byteStride":32,"target":34962,"byteOffset":3729936,"buffer":0},{"byteLength":28576,"byteStride":32,"target":34962,"byteOffset":3842512,"buffer":0},{"byteLength":36480,"byteStride":32,"target":34962,"byteOffset":3871088,"buffer":0},{"byteLength":2048,"byteStride":32,"target":34962,"byteOffset":3907568,"buffer":0},{"byteLength":425088,"byteStride":32,"target":34962,"byteOffset":3909616,"buffer":0},{"byteLength":115360,"byteStride":32,"target":34962,"byteOffset":4334704,"buffer":0},{"byteLength":3776,"byteStride":32,"target":34962,"byteOffset":4450064,"buffer":0},{"byteLength":43520,"byteStride":32,"target":34962,"byteOffset":4453840,"buffer":0},{"byteLength":339648,"byteStride":32,"target":34962,"byteOffset":4497360,"buffer":0},{"byteLength":37024,"byteStride":32,"target":34962,"byteOffset":4837008,"buffer":0},{"byteLength":169088,"byteStride":32,"target":34962,"byteOffset":4874032,"buffer":0},{"byteLength":27776,"byteStride":32,"target":34962,"byteOffset":5043120,"buffer":0},{"byteLength":186528,"byteStride":32,"target":34962,"byteOffset":5070896,"buffer":0},{"byteLength":706304,"byteStride":32,"target":34962,"byteOffset":5257424,"buffer":0},{"byteLength":3131744,"byteStride":32,"target":34962,"byteOffset":5963728,"buffer":0},{"byteLength":57568,"byteStride":32,"target":34962,"byteOffset":9095472,"buffer":0},{"byteLength":38016,"byteStride":32,"target":34962,"byteOffset":9153040,"buffer":0},{"byteLength":710368,"byteStride":32,"target":34962,"byteOffset":9191056,"buffer":0},{"byteLength":20384,"byteStride":32,"target":34962,"byteOffset":9901424,"buffer":0},{"byteLength":26144,"byteStride":32,"target":34962,"byteOffset":9921808,"buffer":0},{"byteLength":256,"byteStride":32,"target":34962,"byteOffset":9947952,"buffer":0},{"byteLength":1024,"byteStride":32,"target":34962,"byteOffset":9948208,"buffer":0},{"byteLength":128,"byteStride":32,"target":34962,"byteOffset":9949232,"buffer":0}],"samplers":[{"magFilter":9729,"minFilter":9987}],"scene":0,"nodes":[{"name":"BldgLG_F_beamA_a","translation":[-7.562620162963867,-13.146522521972656,13.331975936889648],"mesh":0},{"name":"BldgLG_F_beamA_b","translation":[-7.562620162963867,-13.146522521972656,13.331974029541016],"mesh":1},{"name":"BldgLG_F_blocksA","translation":[-7.562620162963867,-13.146523475646973,13.331974983215332],"mesh":2},{"name":"BldgLG_F_blocksB","translation":[-7.562620162963867,-13.146523475646973,13.331975936889648],"mesh":3},{"name":"BldgLG_F_blocksC","translation":[-7.562620162963867,-13.146523475646973,13.331974029541016],"mesh":4},{"name":"BldgLG_F_damageA_a","translation":[-7.562620162963867,-13.146522521972656,13.331974029541016],"mesh":5},{"name":"BldgLG_F_damageA_b","translation":[-7.562620162963867,-13.146522521972656,13.331974983215332],"mesh":6},{"name":"BldgLG_F_floorA","translation":[-7.562620162963867,-13.146523475646973,13.331974029541016],"mesh":7},{"name":"BldgLG_F_metalA","translation":[-7.562620162963867,-13.146523475646973,13.331974983215332],"mesh":8},{"name":"BldgLG_F_planksA","translation":[-7.562620162963867,-13.146523475646973,13.331974029541016],"mesh":9},{"name":"BldgLG_F_planksB","translation":[-7.562620162963867,-13.146523475646973,13.331975936889648],"mesh":10},{"name":"BldgLG_F_planksC","translation":[-7.562620162963867,-13.146523475646973,13.331974029541016],"mesh":11},{"name":"BldgLG_F_planksD","translation":[-7.562620162963867,-13.146522521972656,13.331974029541016],"mesh":12},{"name":"BldgLG_F_plasterA","translation":[-7.562620639801025,-13.146522521972656,13.331974029541016],"mesh":13},{"name":"BldgLG_F_slateA","translation":[-7.562620162963867,-13.146524429321289,13.331974029541016],"mesh":14},{"name":"BldgLG_F_slateB","translation":[-7.562620162963867,-13.146523475646973,13.331974983215332],"mesh":15},{"name":"BldgLG_F_slateC","translation":[-7.562620162963867,-13.146523475646973,13.331975936889648],"mesh":16},{"name":"BldgLG_F_stoneA","translation":[-7.562620162963867,-13.146523475646973,13.331975936889648],"mesh":17},{"name":"BldgLG_F_stoneB","translation":[-7.562620162963867,-13.146523475646973,13.331974029541016],"mesh":18},{"name":"BldgLG_F_wallA","translation":[-7.562620162963867,-13.146523475646973,13.331974029541016],"mesh":19},{"name":"BldgLG_F_wallB_a","translation":[-7.562620162963867,-13.146523475646973,13.331974029541016],"mesh":20},{"name":"BldgLG_F_wallB_b","translation":[-7.562620162963867,-13.146522521972656,13.331975936889648],"mesh":21},{"name":"BldgLG_F_wallC","translation":[-7.562620162963867,-13.146522521972656,13.331974029541016],"mesh":22},{"name":"BldgLG_F_windowsA","translation":[-7.562620162963867,-13.146524429321289,13.331974029541016],"mesh":23},{"name":"BldgLG_F_windowsB","translation":[-7.562620162963867,-13.146523475646973,13.331974029541016],"mesh":24},{"name":"BldgLG_F_windowsC","translation":[-7.562620162963867,-13.146523475646973,13.331974029541016],"mesh":25},{"children":[0,1,2,3,4,5,6,7,8,9,10,11,12,13,14,15,16,17,18,19,20,21,22,23,24,25],"name":"BldgLG_F_grp","translation":[0,34.12825059890747,-0.000001430511474609375]},{"name":"BldgLG_H_doorA","translation":[48.14465141296387,-0.45292139053344727,86.74892663955688],"mesh":26}],"materials":[{"normalTexture":{"index":51},"pbrMetallicRoughness":{"metallicRoughnessTexture":{"index":5},"baseColorFactor":[1,1,1,1],"baseColorTexture":{"index":4}},"extensions":{"KHR_materials_specular":{"specularFactor":0.3,"specularTexture":{"index":75}}},"name":"beamA","doubleSided":true},{"normalTexture":{"index":53},"pbrMetallicRoughness":{"metallicRoughnessTexture":{"index":1},"baseColorFactor":[1,1,1,1],"baseColorTexture":{"index":8}},"extensions":{"KHR_materials_specular":{"specularFactor":0.3,"specularTexture":{"index":77}}},"name":"blocksA","doubleSided":true},{"normalTexture":{"index":49},"pbrMetallicRoughness":{"metallicRoughnessTexture":{"index":3},"baseColorFactor":[1,1,1,1],"baseColorTexture":{"index":2}},"extensions":{"KHR_materials_specular":{"specularFactor":0.3,"specularTexture":{"index":71}}},"name":"blocksB","doubleSided":true},{"normalTexture":{"index":52},"pbrMetallicRoughness":{"metallicRoughnessTexture":{"index":0},"baseColorFactor":[1,1,1,1],"baseColorTexture":{"index":6}},"extensions":{"KHR_materials_specular":{"specularFactor":0.3,"specularTexture":{"index":76}}},"name":"blocksC","doubleSided":true},{"normalTexture":{"index":50},"pbrMetallicRoughness":{"metallicRoughnessTexture":{"index":9},"baseColorFactor":[1,1,1,1],"baseColorTexture":{"index":14}},"extensions":{"KHR_materials_specular":{"specularFactor":0.3,"specularTexture":{"index":72}}},"name":"damageA","doubleSided":true},{"normalTexture":{"index":54},"pbrMetallicRoughness":{"metallicRoughnessTexture":{"index":10},"baseColorFactor":[1,1,1,1],"baseColorTexture":{"index":13}},"extensions":{"KHR_materials_specular":{"specularFactor":0.3,"specularTexture":{"index":78}}},"name":"floorA","doubleSided":true},{"normalTexture":{"index":57},"pbrMetallicRoughness":{"metallicRoughnessTexture":{"index":18},"baseColorFactor":[1,1,1,1],"baseColorTexture":{"index":7}},"extensions":{"KHR_materials_specular":{"specularFactor":0.3,"specularTexture":{"index":86}}},"name":"metalA","doubleSided":true},{"normalTexture":{"index":55},"pbrMetallicRoughness":{"metallicRoughnessTexture":{"index":15},"baseColorFactor":[1,1,1,1],"baseColorTexture":{"index":16}},"extensions":{"KHR_materials_specular":{"specularFactor":0.3,"specularTexture":{"index":79}}},"name":"planksA","doubleSided":true},{"normalTexture":{"index":48},"pbrMetallicRoughness":{"metallicRoughnessTexture":{"index":11},"baseColorFactor":[1,1,1,1],"baseColorTexture":{"index":12}},"extensions":{"KHR_materials_specular":{"specularFactor":0.3,"specularTexture":{"index":69}}},"name":"planksB","doubleSided":true},{"normalTexture":{"index":56},"pbrMetallicRoughness":{"metallicRoughnessTexture":{"index":22},"baseColorFactor":[1,1,1,1],"baseColorTexture":{"index":17}},"extensions":{"KHR_materials_specular":{"specularFactor":0.3,"specularTexture":{"index":80}}},"name":"planksC","doubleSided":true},{"normalTexture":{"index":58},"pbrMetallicRoughness":{"metallicRoughnessTexture":{"index":24},"baseColorFactor":[1,1,1,1],"baseColorTexture":{"index":21}},"extensions":{"KHR_materials_specular":{"specularFactor":0.3,"specularTexture":{"index":81}}},"name":"planksD","doubleSided":true},{"normalTexture":{"index":59},"pbrMetallicRoughness":{"metallicRoughnessTexture":{"index":25},"baseColorFactor":[1,1,1,1],"baseColorTexture":{"index":20}},"extensions":{"KHR_materials_specular":{"specularFactor":0.3,"specularTexture":{"index":82}}},"name":"plasterA","doubleSided":true},{"normalTexture":{"index":62},"pbrMetallicRoughness":{"metallicRoughnessTexture":{"index":19},"baseColorFactor":[1,1,1,1],"baseColorTexture":{"index":30}},"extensions":{"KHR_materials_specular":{"specularFactor":0.3,"specularTexture":{"index":85}}},"name":"slateA","doubleSided":true},{"normalTexture":{"index":65},"pbrMetallicRoughness":{"metallicRoughnessTexture":{"index":41},"baseColorFactor":[1,1,1,1],"baseColorTexture":{"index":36}},"extensions":{"KHR_materials_specular":{"specularFactor":0.3,"specularTexture":{"index":88}}},"name":"slateB","doubleSided":true},{"normalTexture":{"index":61},"pbrMetallicRoughness":{"metallicRoughnessTexture":{"index":23},"baseColorFactor":[1,1,1,1],"baseColorTexture":{"index":28}},"extensions":{"KHR_materials_specular":{"specularFactor":0.3,"specularTexture":{"index":84}}},"name":"slateC","doubleSided":true},{"normalTexture":{"index":73},"pbrMetallicRoughness":{"metallicRoughnessTexture":{"index":26},"baseColorFactor":[1,1,1,1],"baseColorTexture":{"index":47}},"extensions":{"KHR_materials_specular":{"specularFactor":0.3,"specularTexture":{"index":93}}},"name":"stoneA","doubleSided":true},{"normalTexture":{"index":64},"pbrMetallicRoughness":{"metallicRoughnessTexture":{"index":29},"baseColorFactor":[1,1,1,1],"baseColorTexture":{"index":35}},"extensions":{"KHR_materials_specular":{"specularFactor":0.3,"specularTexture":{"index":87}}},"name":"stoneB","doubleSided":true},{"normalTexture":{"index":68},"pbrMetallicRoughness":{"metallicRoughnessTexture":{"index":39},"baseColorFactor":[1,1,1,1],"baseColorTexture":{"index":40}},"extensions":{"KHR_materials_specular":{"specularFactor":0.3,"specularTexture":{"index":92}}},"name":"wallA","doubleSided":true},{"normalTexture":{"index":66},"pbrMetallicRoughness":{"metallicRoughnessTexture":{"index":38},"baseColorFactor":[1,1,1,1],"baseColorTexture":{"index":37}},"extensions":{"KHR_materials_specular":{"specularFactor":0.3,"specularTexture":{"index":90}}},"name":"wallB","doubleSided":true},{"normalTexture":{"index":74},"pbrMetallicRoughness":{"metallicRoughnessTexture":{"index":46},"baseColorFactor":[1,1,1,1],"baseColorTexture":{"index":43}},"extensions":{"KHR_materials_specular":{"specularFactor":0.3,"specularTexture":{"index":94}}},"name":"wallC","doubleSided":true},{"normalTexture":{"index":63},"pbrMetallicRoughness":{"metallicRoughnessTexture":{"index":27},"baseColorFactor":[1,1,1,1],"baseColorTexture":{"index":34}},"extensions":{"KHR_materials_specular":{"specularFactor":0.3,"specularTexture":{"index":89}}},"name":"windowsA","doubleSided":true},{"normalTexture":{"index":60},"pbrMetallicRoughness":{"metallicRoughnessTexture":{"index":33},"baseColorFactor":[1,1,1,1],"baseColorTexture":{"index":32}},"extensions":{"KHR_materials_specular":{"specularFactor":0.3,"specularTexture":{"index":83}}},"name":"windowsB","doubleSided":true},{"normalTexture":{"index":70},"pbrMetallicRoughness":{"metallicRoughnessTexture":{"index":42},"baseColorFactor":[1,1,1,1],"baseColorTexture":{"index":45}},"extensions":{"KHR_materials_specular":{"specularFactor":0.3,"specularTexture":{"index":95}}},"name":"windowsC","doubleSided":true},{"normalTexture":{"index":67},"pbrMetallicRoughness":{"metallicRoughnessTexture":{"index":44},"baseColorFactor":[1,1,1,0],"baseColorTexture":{"index":31}},"extensions":{"KHR_materials_specular":{"specularFactor":0.3,"specularTexture":{"index":91}}},"name":"doorA","doubleSided":true,"alphaMode":"BLEND"}],"scenes":[{"nodes":[26,27],"name":"Scene"}],"asset":{"generator":"CG美术之家","source":"https://www.cgmszj.com/model/104214.html","version":"2.0"},"meshes":[{"primitives":[{"mode":4,"indices":3,"material":0,"attributes":{"POSITION":0,"TEXCOORD_0":2,"NORMAL":1}}],"name":"网格.619"},{"primitives":[{"mode":4,"indices":4,"material":0,"attributes":{"POSITION":30,"TEXCOORD_0":32,"NORMAL":31}}],"name":"网格.611"},{"primitives":[{"mode":4,"indices":5,"material":1,"attributes":{"POSITION":33,"TEXCOORD_0":35,"NORMAL":34}}],"name":"网格.602"},{"primitives":[{"mode":4,"indices":6,"material":2,"attributes":{"POSITION":36,"TEXCOORD_0":38,"NORMAL":37}}],"name":"网格.604"},{"primitives":[{"mode":4,"indices":7,"material":3,"attributes":{"POSITION":39,"TEXCOORD_0":41,"NORMAL":40}}],"name":"网格.613"},{"primitives":[{"mode":4,"indices":8,"material":4,"attributes":{"POSITION":42,"TEXCOORD_0":44,"NORMAL":43}}],"name":"网格.600"},{"primitives":[{"mode":4,"indices":9,"material":4,"attributes":{"POSITION":45,"TEXCOORD_0":47,"NORMAL":46}}],"name":"网格.594"},{"primitives":[{"mode":4,"indices":10,"material":5,"attributes":{"POSITION":48,"TEXCOORD_0":50,"NORMAL":49}}],"name":"网格.608"},{"primitives":[{"mode":4,"indices":11,"material":6,"attributes":{"POSITION":51,"TEXCOORD_0":53,"NORMAL":52}}],"name":"网格.616"},{"primitives":[{"mode":4,"indices":12,"material":7,"attributes":{"POSITION":54,"TEXCOORD_0":56,"NORMAL":55}}],"name":"网格.609"},{"primitives":[{"mode":4,"indices":13,"material":8,"attributes":{"POSITION":57,"TEXCOORD_0":59,"NORMAL":58}}],"name":"网格.610"},{"primitives":[{"mode":4,"indices":14,"material":9,"attributes":{"POSITION":60,"TEXCOORD_0":62,"NORMAL":61}}],"name":"网格.595"},{"primitives":[{"mode":4,"indices":15,"material":10,"attributes":{"POSITION":63,"TEXCOORD_0":65,"NORMAL":64}}],"name":"网格.617"},{"primitives":[{"mode":4,"indices":16,"material":11,"attributes":{"POSITION":66,"TEXCOORD_0":68,"NORMAL":67}}],"name":"网格.599"},{"primitives":[{"mode":4,"indices":17,"material":12,"attributes":{"POSITION":69,"TEXCOORD_0":71,"NORMAL":70}}],"name":"网格.603"},{"primitives":[{"mode":4,"indices":18,"material":13,"attributes":{"POSITION":72,"TEXCOORD_0":74,"NORMAL":73}}],"name":"网格.598"},{"primitives":[{"mode":4,"indices":19,"material":14,"attributes":{"POSITION":75,"TEXCOORD_0":77,"NORMAL":76}}],"name":"网格.606"},{"primitives":[{"mode":4,"indices":20,"material":15,"attributes":{"POSITION":78,"TEXCOORD_0":80,"NORMAL":79}}],"name":"网格.596"},{"primitives":[{"mode":4,"indices":21,"material":16,"attributes":{"POSITION":81,"TEXCOORD_0":83,"NORMAL":82}}],"name":"网格.607"},{"primitives":[{"mode":4,"indices":22,"material":17,"attributes":{"POSITION":84,"TEXCOORD_0":86,"NORMAL":85}}],"name":"网格.597"},{"primitives":[{"mode":4,"indices":23,"material":18,"attributes":{"POSITION":87,"TEXCOORD_0":89,"NORMAL":88}}],"name":"网格.618"},{"primitives":[{"mode":4,"indices":24,"material":18,"attributes":{"POSITION":90,"TEXCOORD_0":92,"NORMAL":91}}],"name":"网格.605"},{"primitives":[{"mode":4,"indices":25,"material":19,"attributes":{"POSITION":93,"TEXCOORD_0":95,"NORMAL":94}}],"name":"网格.601"},{"primitives":[{"mode":4,"indices":26,"material":20,"attributes":{"POSITION":96,"TEXCOORD_0":98,"NORMAL":97}}],"name":"网格.612"},{"primitives":[{"mode":4,"indices":27,"material":21,"attributes":{"POSITION":99,"TEXCOORD_0":101,"NORMAL":100}}],"name":"网格.614"},{"primitives":[{"mode":4,"indices":28,"material":22,"attributes":{"POSITION":102,"TEXCOORD_0":104,"NORMAL":103}}],"name":"网格.615"},{"primitives":[{"mode":4,"indices":29,"material":23,"attributes":{"POSITION":105,"TEXCOORD_0":107,"NORMAL":106}}],"name":"网格.675"}]}